# xmcd
#
# Track frame offsets:
# 150
# 14832
# 31662
# 42360
# 58430
# 71540
# 85612
# 90670
# 97145
# 110295
# 122215
# 132212
#
# Disc length: 1925 seconds
#
#
# Revision: 2
# Processed by: cddbd v1.5.2PL0 Copyright (c) Steve Scherf et al.
# Submitted via: FreeRIP 2.90 
#
DISCID=a307830c
DTITLE=Maria Bethânia - MPB no JT 7
DYEAR=1997
DGENRE=MPB
TTITLE0=Anos Dourados
TTITLE1=Verdades e Mentiras
TTITLE2=Viramundo
TTITLE3=Gostoso Demais
TTITLE4=Meu Barracão
TTITLE5=Tranchan
TTITLE6=O Que os Olhos Não Vêem
TTITLE7=Eu Sou a Outra
TTITLE8=Silêncio de um Minuto
TTITLE9=Anda, Luzia
TTITLE10=Recado Falado
TTITLE11=Carcará
EXTD=
EXTT0=
EXTT1=
EXTT2=
EXTT3=
EXTT4=
EXTT5=
EXTT6=
EXTT7=
EXTT8=
EXTT9=
EXTT10=
EXTT11=
PLAYORDER=
